<svg width="399" height="30" viewBox="0 0 399 30" fill="none" xmlns="http://www.w3.org/2000/svg">
<g filter="url(#filter0_d_708_2853)">
<path d="M27.6266 18.9819C27.3788 18.9819 27.1779 18.781 27.1779 18.5332V12.4327C27.1779 12.2842 27.2513 12.1454 27.3741 12.0618L35.4345 6.57441C35.509 6.52372 35.597 6.49661 35.687 6.49661H40.8376C40.929 6.49661 41.0183 6.46869 41.0934 6.41657L47.7222 1.81739C48.0834 1.56675 47.9061 1 47.4664 1H34.233C34.1396 1 34.0485 1.02913 33.9725 1.08334L22.241 9.44669C22.1229 9.5309 22.0527 9.66701 22.0527 9.81207V23.6126C22.0527 23.8605 22.2536 24.0614 22.5015 24.0614H34.8798C35.1276 24.0614 35.3285 23.8605 35.3285 23.6126V19.4306C35.3285 19.1828 35.1276 18.9819 34.8798 18.9819H27.6266Z" fill="white"/>
<path d="M8.57385 18.9819C8.32603 18.9819 8.12513 18.781 8.12513 18.5332V12.4327C8.12513 12.2842 8.19859 12.1454 8.32133 12.0618L16.3818 6.57441C16.4562 6.52372 16.5442 6.49661 16.6343 6.49661H21.7849C21.8763 6.49661 21.9656 6.46869 22.0407 6.41657L28.6694 1.81739C29.0307 1.56675 28.8533 1 28.4137 1H15.1802C15.0868 1 14.9958 1.02913 14.9197 1.08334L3.18824 9.44669C3.07012 9.5309 3 9.66701 3 9.81207V23.6126C3 23.8605 3.2009 24.0614 3.44872 24.0614H15.8271C16.0749 24.0614 16.2758 23.8605 16.2758 23.6126V19.4306C16.2758 19.1828 16.0749 18.9819 15.8271 18.9819H8.57385Z" fill="white"/>
<path d="M40.2912 13.8418H36.1059C35.8581 13.8418 35.6572 14.0427 35.6572 14.2905V18.4758C35.6572 18.7236 35.8581 18.9245 36.1059 18.9245H40.2912C40.539 18.9245 40.7399 18.7236 40.7399 18.4758V14.2905C40.7399 14.0427 40.539 13.8418 40.2912 13.8418Z" fill="white"/>
<path d="M21.1877 13.8418H17.0024C16.7546 13.8418 16.5537 14.0427 16.5537 14.2905V18.4758C16.5537 18.7236 16.7546 18.9245 17.0024 18.9245H21.1877C21.4355 18.9245 21.6364 18.7236 21.6364 18.4758V14.2905C21.6364 14.0427 21.4355 13.8418 21.1877 13.8418Z" fill="white"/>
<path d="M45.716 18.9824H41.5308C41.2829 18.9824 41.082 19.1833 41.082 19.4311V23.6164C41.082 23.8642 41.2829 24.0651 41.5308 24.0651H45.716C45.9638 24.0651 46.1647 23.8642 46.1647 23.6164V19.4311C46.1647 19.1833 45.9638 18.9824 45.716 18.9824Z" fill="white"/>
<path d="M72.1854 23.0703V6.03172H65.4855V2.85504H82.6395V6.03172H75.9396V23.0703H72.1854Z" fill="white"/>
<path d="M105.441 2.85504H109.195V23.0703H105.441V2.85504ZM94.9871 23.0703H91.2328V2.85504H94.9871V23.0703ZM105.73 14.4066H94.6694V11.201H105.73V14.4066Z" fill="white"/>
<path d="M123.854 11.2588H133.903V14.3488H123.854V11.2588ZM124.142 19.9225H135.549V23.0703H120.388V2.85504H135.145V6.00284H124.142V19.9225Z" fill="white"/>
<path d="M168.624 23.3591C167.084 23.3591 165.65 23.1088 164.321 22.6082C163.012 22.0884 161.867 21.3664 160.885 20.4423C159.922 19.4989 159.171 18.3919 158.632 17.1212C158.093 15.8505 157.823 14.4644 157.823 12.9627C157.823 11.4609 158.093 10.0748 158.632 8.80409C159.171 7.53342 159.932 6.43602 160.913 5.5119C161.895 4.56852 163.041 3.84655 164.35 3.34598C165.659 2.82616 167.094 2.56625 168.653 2.56625C170.309 2.56625 171.82 2.85504 173.187 3.43262C174.554 3.99094 175.709 4.82843 176.652 5.94508L174.227 8.22652C173.495 7.43716 172.677 6.84995 171.772 6.4649C170.867 6.0606 169.885 5.85845 168.826 5.85845C167.767 5.85845 166.795 6.03172 165.91 6.37827C165.043 6.72481 164.283 7.21575 163.628 7.85109C162.993 8.48642 162.492 9.23728 162.126 10.1036C161.78 10.97 161.607 11.923 161.607 12.9627C161.607 14.0023 161.78 14.9553 162.126 15.8217C162.492 16.688 162.993 17.4389 163.628 18.0742C164.283 18.7096 165.043 19.2005 165.91 19.547C166.795 19.8936 167.767 20.0669 168.826 20.0669C169.885 20.0669 170.867 19.8743 171.772 19.4893C172.677 19.085 173.495 18.4785 174.227 17.6699L176.652 19.9802C175.709 21.0776 174.554 21.9151 173.187 22.4927C171.82 23.0703 170.299 23.3591 168.624 23.3591Z" fill="white"/>
<path d="M182.743 23.0703L191.84 2.85504H195.537L204.663 23.0703H200.735L192.909 4.84768H194.411L186.613 23.0703H182.743ZM186.931 18.3919L187.942 15.4462H198.858L199.869 18.3919H186.931Z" fill="white"/>
<path d="M213.009 23.0703V2.85504H221.326C223.117 2.85504 224.647 3.14383 225.918 3.72141C227.208 4.29899 228.199 5.12685 228.893 6.20499C229.586 7.28314 229.932 8.56344 229.932 10.0459C229.932 11.5283 229.586 12.8086 228.893 13.8868C228.199 14.9457 227.208 15.7639 225.918 16.3415C224.647 16.8998 223.117 17.179 221.326 17.179H215.088L216.763 15.4751V23.0703H213.009ZM226.236 23.0703L221.124 15.735H225.138L230.279 23.0703H226.236ZM216.763 15.8794L215.088 14.0889H221.153C222.809 14.0889 224.051 13.7328 224.878 13.0204C225.726 12.3081 226.149 11.3166 226.149 10.0459C226.149 8.75596 225.726 7.76445 224.878 7.07136C224.051 6.37827 222.809 6.03172 221.153 6.03172H215.088L216.763 4.18347V15.8794Z" fill="white"/>
<path d="M263.022 23.3591C261.482 23.3591 260.047 23.1088 258.719 22.6082C257.41 22.0884 256.264 21.3664 255.282 20.4423C254.32 19.4989 253.569 18.3919 253.03 17.1212C252.491 15.8505 252.221 14.4644 252.221 12.9627C252.221 11.4609 252.491 10.0748 253.03 8.80409C253.569 7.53342 254.329 6.43602 255.311 5.5119C256.293 4.56852 257.439 3.84655 258.748 3.34598C260.057 2.82616 261.491 2.56625 263.051 2.56625C264.707 2.56625 266.218 2.85504 267.585 3.43262C268.952 3.99094 270.107 4.82843 271.05 5.94508L268.625 8.22652C267.893 7.43716 267.075 6.84995 266.17 6.4649C265.265 6.0606 264.283 5.85845 263.224 5.85845C262.165 5.85845 261.193 6.03172 260.307 6.37827C259.441 6.72481 258.681 7.21575 258.026 7.85109C257.391 8.48642 256.89 9.23728 256.524 10.1036C256.178 10.97 256.004 11.923 256.004 12.9627C256.004 14.0023 256.178 14.9553 256.524 15.8217C256.89 16.688 257.391 17.4389 258.026 18.0742C258.681 18.7096 259.441 19.2005 260.307 19.547C261.193 19.8936 262.165 20.0669 263.224 20.0669C264.283 20.0669 265.265 19.8743 266.17 19.4893C267.075 19.085 267.893 18.4785 268.625 17.6699L271.05 19.9802C270.107 21.0776 268.952 21.9151 267.585 22.4927C266.218 23.0703 264.697 23.3591 263.022 23.3591Z" fill="white"/>
<path d="M280.423 23.0703V2.85504H288.74C290.531 2.85504 292.062 3.14383 293.332 3.72141C294.622 4.29899 295.614 5.12685 296.307 6.20499C297 7.28314 297.346 8.56344 297.346 10.0459C297.346 11.5283 297 12.8086 296.307 13.8868C295.614 14.9457 294.622 15.7639 293.332 16.3415C292.062 16.8998 290.531 17.179 288.74 17.179H282.503L284.178 15.4751V23.0703H280.423ZM293.65 23.0703L288.538 15.735H292.552L297.693 23.0703H293.65ZM284.178 15.8794L282.503 14.0889H288.567C290.223 14.0889 291.465 13.7328 292.293 13.0204C293.14 12.3081 293.563 11.3166 293.563 10.0459C293.563 8.75596 293.14 7.76445 292.293 7.07136C291.465 6.37827 290.223 6.03172 288.567 6.03172H282.503L284.178 4.18347V15.8794Z" fill="white"/>
<path d="M316.795 23.3591C315.216 23.3591 313.762 23.0991 312.434 22.5793C311.106 22.0595 309.95 21.3375 308.969 20.4134C307.987 19.47 307.226 18.3726 306.687 17.1212C306.148 15.8505 305.879 14.4644 305.879 12.9627C305.879 11.4609 306.148 10.0844 306.687 8.83297C307.226 7.5623 307.987 6.4649 308.969 5.54078C309.95 4.5974 311.106 3.8658 312.434 3.34598C313.762 2.82616 315.206 2.56625 316.766 2.56625C318.345 2.56625 319.789 2.82616 321.098 3.34598C322.426 3.8658 323.581 4.5974 324.563 5.54078C325.545 6.4649 326.306 7.5623 326.845 8.83297C327.384 10.0844 327.653 11.4609 327.653 12.9627C327.653 14.4644 327.384 15.8505 326.845 17.1212C326.306 18.3919 325.545 19.4893 324.563 20.4134C323.581 21.3375 322.426 22.0595 321.098 22.5793C319.789 23.0991 318.354 23.3591 316.795 23.3591ZM316.766 20.0669C317.786 20.0669 318.73 19.8936 319.596 19.547C320.462 19.2005 321.213 18.7096 321.849 18.0742C322.484 17.4196 322.975 16.6688 323.321 15.8217C323.687 14.9553 323.87 14.0023 323.87 12.9627C323.87 11.923 323.687 10.9796 323.321 10.1325C322.975 9.26615 322.484 8.5153 321.849 7.87997C321.213 7.22538 320.462 6.72481 319.596 6.37827C318.73 6.03172 317.786 5.85845 316.766 5.85845C315.745 5.85845 314.802 6.03172 313.936 6.37827C313.089 6.72481 312.338 7.22538 311.683 7.87997C311.048 8.5153 310.547 9.26615 310.181 10.1325C309.835 10.9796 309.662 11.923 309.662 12.9627C309.662 13.983 309.835 14.9264 310.181 15.7928C310.547 16.6591 311.048 17.4196 311.683 18.0742C312.319 18.7096 313.069 19.2005 313.936 19.547C314.802 19.8936 315.745 20.0669 316.766 20.0669Z" fill="white"/>
<path d="M341.553 23.0703L334.853 2.85504H338.752L344.73 21.1354H342.795L349.004 2.85504H352.469L358.505 21.1354H356.628L362.75 2.85504H366.331L359.631 23.0703H355.646L350.13 6.58042H351.17L345.567 23.0703H341.553Z" fill="white"/>
<path d="M375.165 23.0703V2.85504H384.002C386.197 2.85504 388.122 3.2786 389.778 4.12571C391.434 4.97283 392.724 6.14723 393.648 7.64894C394.572 9.15064 395.034 10.9219 395.034 12.9627C395.034 14.9842 394.572 16.7554 393.648 18.2764C392.724 19.7781 391.434 20.9525 389.778 21.7996C388.122 22.6467 386.197 23.0703 384.002 23.0703H375.165ZM378.92 19.8936H383.829C385.35 19.8936 386.659 19.6048 387.756 19.0272C388.873 18.4496 389.73 17.641 390.327 16.6014C390.943 15.5618 391.251 14.3488 391.251 12.9627C391.251 11.5572 390.943 10.3443 390.327 9.32391C389.73 8.28427 388.873 7.47566 387.756 6.89809C386.659 6.32051 385.35 6.03172 383.829 6.03172H378.92V19.8936Z" fill="white"/>
</g>
<defs>
<filter id="filter0_d_708_2853" x="0" y="0" width="398.035" height="29.0652" filterUnits="userSpaceOnUse" color-interpolation-filters="sRGB">
<feFlood flood-opacity="0" result="BackgroundImageFix"/>
<feColorMatrix in="SourceAlpha" type="matrix" values="0 0 0 0 0 0 0 0 0 0 0 0 0 0 0 0 0 0 127 0" result="hardAlpha"/>
<feOffset dy="2"/>
<feGaussianBlur stdDeviation="1.5"/>
<feComposite in2="hardAlpha" operator="out"/>
<feColorMatrix type="matrix" values="0 0 0 0 0 0 0 0 0 0 0 0 0 0 0 0 0 0 0.25 0"/>
<feBlend mode="normal" in2="BackgroundImageFix" result="effect1_dropShadow_708_2853"/>
<feBlend mode="normal" in="SourceGraphic" in2="effect1_dropShadow_708_2853" result="shape"/>
</filter>
</defs>
</svg>
